<svg width="54" height="54" viewBox="0 0 54 54" fill="none" xmlns="http://www.w3.org/2000/svg">
<path d="M27 0.75C12.51 0.75 0.75 12.51 0.75 27C0.75 41.49 12.51 53.25 27 53.25C41.49 53.25 53.25 41.49 53.25 27C53.25 12.51 41.49 0.75 27 0.75ZM29.31 42.12V45.375H24.7162V41.9887C22.7738 41.5162 18.4425 39.9675 16.7887 34.2188L21.12 32.46C21.2775 33.0375 22.6425 37.9463 27.42 37.9463C29.8612 37.9463 32.6175 36.6863 32.6175 33.72C32.6175 31.2 30.78 29.8875 26.6325 28.3912C23.745 27.3675 17.8388 25.6875 17.8388 19.7025C17.8388 19.44 17.865 13.4025 24.7162 11.9325V8.625H29.31V11.88C34.14 12.72 35.8988 16.5788 36.2925 17.7338L32.145 19.4925C31.8563 18.5738 30.5963 15.975 27.1575 15.975C25.32 15.975 22.4062 16.9462 22.4062 19.6237C22.4062 22.1175 24.6638 23.0625 29.3363 24.6112C35.6362 26.79 37.2375 29.9925 37.2375 33.6675C37.2375 40.5713 30.675 41.8838 29.31 42.12Z" fill="#333333"/>
</svg>
